<?xml version="1.0" encoding="UTF-8"?>
<svg width="69px" height="51px" viewBox="0 0 69 51" version="1.1" xmlns="http://www.w3.org/2000/svg" xmlns:xlink="http://www.w3.org/1999/xlink">
    <title>Group 15</title>
    <g id="Site-externe" stroke="none" stroke-width="1" fill="none" fill-rule="evenodd">
        <g transform="translate(-685.000000, -3509.000000)" id="Group-17">
            <g transform="translate(152.000000, 3201.500000)">
                <g id="Group-15" transform="translate(533.000000, 308.000000)">
                    <path d="M68.39988,-0.000479999998 L68.39988,41.99952 L65.99988,41.99952 L65.99888,9.59952 L14.4,9.6 L14.4,7.2 L65.99888,7.19952 L65.99988,2.40072 L14.39988,2.40072 L14.39988,46.80072 L61.19988,46.80072 L61.19988,49.19952 L11.99988,49.19952 L11.99988,-0.000479999998 L68.39988,-0.000479999998 Z" id="Combined-Shape" fill="#000091"></path>
                    <polygon id="Fill-3" fill="#505050" points="16.8 6 19.2 6 19.2 3.6 16.8 3.6"></polygon>
                    <polygon id="Fill-4" fill="#505050" points="21.6 6 24 6 24 3.6 21.6 3.6"></polygon>
                    <polygon id="Fill-5" fill="#505050" points="26.4 6 28.8 6 28.8 3.6 26.4 3.6"></polygon>
                    <path d="M20.4,24 L20.4,34.8 L18,34.8 L18,24 L20.4,24 Z M32.4,27.6 L32.4,34.8 L30,34.8 L30,27.6 L32.4,27.6 Z M50.4,27.6 L50.4,34.8 L48,34.8 L48,27.6 L50.4,27.6 Z M2.4,27.6 L2.4,34.8 L9.17044218e-14,34.8 L9.17044218e-14,27.6 L2.4,27.6 Z" id="Combined-Shape" fill="#000091"></path>
                    <path d="M38.4,20.4 L38.4,34.8 L36,34.8 L36,20.4 L38.4,20.4 Z M26.4,15.6 L26.4,34.8 L24,34.8 L24,15.6 L26.4,15.6 Z M57.6,15.6 L57.6,34.8 L55.2,34.8 L55.2,15.6 L57.6,15.6 Z M8.4,15.6 L8.4,34.8 L6,34.8 L6,15.6 L8.4,15.6 Z" id="Combined-Shape" fill="#E1000F"></path>
                </g>
            </g>
        </g>
    </g>
</svg>