<?xml version="1.0" encoding="UTF-8"?>
<svg width="48px" height="63px" viewBox="0 0 48 63" version="1.1" xmlns="http://www.w3.org/2000/svg" xmlns:xlink="http://www.w3.org/1999/xlink">
    <title>Group 11</title>
    <g id="Site-externe" stroke="none" stroke-width="1" fill="none" fill-rule="evenodd">
        <g transform="translate(-307.000000, -3503.000000)" id="Group-17">
            <g transform="translate(152.000000, 3201.500000)">
                <g id="Group-16" transform="translate(0.000000, 272.000000)">
                    <g id="Group-11" transform="translate(155.000000, 30.000000)">
                        <path d="M44.8,26.88 L24.32,26.88 L24.32,29.44 L42.24,29.44 C42.24,32.50816 35.78624,38.7648 26.1824,45.00736 L25.6,45.38624 L25.6,55.68 L21.76,58.56 L21.76,45.38624 L21.1776,45.00736 C11.57376,38.76352 5.12,32.50816 5.12,29.44 L12.8,29.44 L12.8,26.88 L2.56,26.88 L2.56,24.32 L44.8,24.32 L44.8,26.88 Z M44.8,21.76 L2.56,21.76 C1.14816,21.76 0,22.90816 0,24.32 L0,26.88 C0,28.29184 1.14816,29.44 2.56,29.44 C2.56,35.11296 13.75616,43.18336 19.2,46.77248 L19.2,61.44 L22.18624,61.44 L28.16,56.96 L28.16,46.77248 C33.60384,43.18464 44.8,35.11296 44.8,29.44 L44.8,29.44 C46.21184,29.44 47.36,28.29184 47.36,26.88 L47.36,24.32 C47.36,22.90816 46.21184,21.76 44.8,21.76 L44.8,21.76 Z" id="Fill-1" fill="#000091"></path>
                        <path d="M37.12,14.08 C38.53184,14.08 39.68,15.22816 39.68,16.64 L39.68,16.64 L39.68,20.48 L37.12,20.48 L37.12,16.64 L34.56,16.64 L34.56,20.48 L32,20.48 L32,16.64 C32,15.22816 33.14816,14.08 34.56,14.08 L34.56,14.08 Z M14.08,7.68 C15.49184,7.68 16.64,8.82816 16.64,10.24 L16.64,10.24 L16.64,15.36 C16.64,16.77184 15.49184,17.92 14.08,17.92 L14.08,17.92 L11.52,17.92 C10.10816,17.92 8.96,16.77184 8.96,15.36 L8.96,15.36 L8.96,10.24 C8.96,8.82816 10.10816,7.68 11.52,7.68 L11.52,7.68 Z M14.08,10.24 L11.52,10.24 L11.52,15.36 L14.08128,15.36 L14.08,10.24 Z M29.44,-2.20268248e-13 C30.85184,-2.20268248e-13 32,1.14816 32,2.56 L32,2.56 L32,7.68 C32,9.09184 30.85184,10.24 29.44,10.24 L29.44,10.24 L26.88,10.24 C25.46816,10.24 24.32,9.09184 24.32,7.68 L24.32,7.68 L24.32,2.56 C24.32,1.14816 25.46816,-2.20268248e-13 26.88,-2.20268248e-13 L26.88,-2.20268248e-13 Z M29.44,2.56 L26.88,2.56 L26.88,7.68 L29.44128,7.68 L29.44,2.56 Z" id="Combined-Shape" fill="#000091"></path>
                        <path d="M23.04,15.36 L23.04,20.48 L20.48,20.48 L20.48,15.36 L23.04,15.36 Z M44.8,2.56 L44.8,12.8 L42.24,12.8 L42.24,2.56 L44.8,2.56 Z M5.12,-2.20268248e-13 L5.12,10.24 L2.56,10.24 L2.56,-2.20268248e-13 L5.12,-2.20268248e-13 Z" id="Combined-Shape" fill="#E1000F"></path>
                    </g>
                </g>
            </g>
        </g>
    </g>
</svg>