<?xml version="1.0" encoding="UTF-8"?>
<svg width="36px" height="36px" viewBox="0 0 36 36" version="1.1" xmlns="http://www.w3.org/2000/svg" xmlns:xlink="http://www.w3.org/1999/xlink">
    <title>Group 25</title>
    <g id="Site-externe" stroke="none" stroke-width="1" fill="none" fill-rule="evenodd">
        <g transform="translate(-959.000000, -4552.000000)" id="Group-21-Copy">
            <g transform="translate(80.000000, 4235.000000)">
                <g id="Group-19" transform="translate(72.000000, 60.000000)">
                    <g id="Group-18" transform="translate(0.000000, 88.000000)">
                        <g id="Group-7-Copy-6" transform="translate(584.000000, 0.000000)">
                            <g id="Group-25" transform="translate(223.000000, 169.000000)">
                                <path d="M0,0 L36,0 L36,26 C36,31.5228475 31.5228475,36 26,36 L0,36 L0,36 L0,0 Z" id="Rectangle" fill="#2A68B5"></path>
                                <path d="M12.6632651,11.004337 C12.2303385,10.9719461 11.8036565,11.122082 11.4873714,11.4180968 C11.1710862,11.7141116 10.9942994,12.1287688 11.000164,12.5608517 C10.9938469,12.9895058 11.170243,13.4007652 11.4856396,13.6927154 C11.8010363,13.9846656 12.2259166,14.1299843 12.654991,14.0926599 L12.654991,14.0926599 C13.5049512,14.0926599 14.19398,13.406846 14.19398,12.5608517 C14.19398,11.7148574 13.5049512,11.0290435 12.654991,11.0290435 L12.6632651,11.004337 Z M11.3725001,24 L14.0781422,24 L14.0781422,15.1715141 L11.3725001,15.1715141 L11.3725001,24 Z M21.5248634,15.0891588 C20.4095087,14.9948203 19.3450829,15.571529 18.8192214,16.5550828 L18.8192214,15.1715141 L15.7412432,15.1715141 C15.7826139,15.9044761 15.7412432,24 15.7412432,24 L18.8192214,24 L18.8192214,19.2233938 C18.8006921,18.9798358 18.8230627,18.7349069 18.8854144,18.4986674 C19.0941019,17.8626119 19.6860248,17.4290159 20.3582104,17.4198132 C21.4255738,17.4198132 21.9054736,18.243366 21.9054736,19.429282 L21.9054736,24 L25,24 L25,19.0586833 C24.9834517,16.3574301 23.4610109,15.0891588 21.5248634,15.0891588 Z" id="linkedin" fill="#FFFFFF"></path>
                            </g>
                        </g>
                    </g>
                </g>
            </g>
        </g>
    </g>
</svg>