<?xml version="1.0" encoding="UTF-8"?>
<svg width="121px" height="90px" viewBox="0 0 121 90" version="1.1" xmlns="http://www.w3.org/2000/svg" xmlns:xlink="http://www.w3.org/1999/xlink">
    <title>01 Fondamentaux/bloc marque/Marianne ⭥12</title>
    <g id="Symbols" stroke="none" stroke-width="1" fill="none" fill-rule="evenodd">
        <g id="02-Composants/En-tête/desktop/Thème-clair/Simple/04)-Bloc-marque+opérateur" transform="translate(-140.000000, -6.000000)">
            <g id="01-Fondamentaux/bloc-marque/Marianne-⭥12" transform="translate(140.000000, 6.000000)">
                <rect id="fond" fill="#FFFFFF" x="0" y="0" width="121" height="90"></rect>
                <g id="devises" transform="translate(12.000000, 56.000000)" fill="#000000" fill-rule="nonzero">
                    <path d="M29.7000001,18.6000001 C29.9640001,18.6000001 30.1920001,18.8040001 30.0720001,19.2720001 L28.8600001,19.5960001 C29.0520001,19.0200001 29.4120001,18.6000001 29.7000001,18.6000001 M30.3720001,20.5680001 L30.1320001,20.5680001 C29.8320001,20.9280001 29.4960001,21.2160001 29.1720001,21.2160001 C28.8360001,21.2160001 28.6680001,21.0120001 28.6680001,20.5680001 C28.6680001,20.3880001 28.6920001,20.1960001 28.7280001,20.0280001 L30.6840001,19.3800001 C31.0680001,18.4680001 30.6120001,18.0720001 30.0720001,18.0720001 C29.1480001,18.0720001 28.0920001,19.6920001 28.0920001,20.9880001 C28.0920001,21.6000001 28.3800001,21.9360001 28.8360001,21.9360001 C29.3640001,21.9240001 29.9160001,21.4080001 30.3720001,20.5680001 M30.0600001,17.6400001 L31.1760001,16.6200001 L31.1760001,16.4760001 L30.4320001,16.4760001 L29.7720001,17.6400001 L30.0600001,17.6400001 Z M25.8840001,18.6240001 L26.5320001,18.6240001 L25.5000001,21.4560001 C25.4040001,21.6960001 25.5360001,21.9360001 25.7880001,21.9360001 C26.5200001,21.9360001 27.3960001,21.3120001 27.7320001,20.4240001 L27.5520001,20.4240001 C27.2880001,20.7960001 26.7120001,21.2040001 26.2800001,21.2760001 L27.2280001,18.6240001 L28.2000001,18.6240001 L28.3200001,18.2160001 L27.3720001,18.2160001 L27.7320001,17.1960001 L27.3600001,17.1960001 L26.6880001,18.2160001 L25.8840001,18.3240001 L25.8840001,18.6240001 L25.8840001,18.6240001 Z M25.2120001,18.4920001 C25.2960001,18.2280001 25.1160001,18.0840001 24.9840001,18.0840001 C24.4200001,18.0840001 23.7480001,18.5880001 23.4720001,19.3080001 L23.6520001,19.3080001 C23.8320001,19.0440001 24.1440001,18.7560001 24.4440001,18.7080001 L23.3640001,21.5280001 C23.2680001,21.7920001 23.4600001,21.9360001 23.5920001,21.9360001 C24.1320001,21.9360001 24.7560001,21.4200001 25.0320001,20.7120001 L24.8400001,20.7120001 C24.6600001,20.9760001 24.3480001,21.2640001 24.0480001,21.3120001 L25.2120001,18.4920001 Z M25.3200001,17.3640001 C25.5600001,17.3640001 25.7640001,17.1720001 25.7640001,16.9200001 C25.7640001,16.6800001 25.5600001,16.4760001 25.3200001,16.4760001 C25.0680001,16.4760001 24.8760001,16.6800001 24.8760001,16.9200001 C24.8760001,17.1600001 25.0800001,17.3640001 25.3200001,17.3640001 M20.0760001,18.8640001 C20.2440001,18.8640001 20.3400001,19.1280001 20.0760001,19.7040001 L19.3080001,21.4080001 C19.1640001,21.7320001 19.3200001,21.9360001 19.6320001,21.9360001 C19.8240001,21.9360001 19.9080001,21.8880001 19.9920001,21.6840001 L20.7480001,19.6920001 C21.0960001,19.2720001 21.7440001,18.8160001 22.0200001,18.8160001 C22.2240001,18.8160001 22.2000001,18.9840001 22.0680001,19.2360001 L20.9160001,21.4560001 C20.8080001,21.6720001 20.9520001,21.9360001 21.2040001,21.9360001 C21.7680001,21.9360001 22.4400001,21.4320001 22.7160001,20.7120001 L22.5360001,20.7120001 C22.3560001,20.9760001 22.0440001,21.2640001 21.7440001,21.3120001 L22.7400001,19.3080001 C22.8720001,19.0560001 22.9320001,18.8160001 22.9320001,18.6240001 C22.9320001,18.3000001 22.7520001,18.0840001 22.4040001,18.0840001 C21.9120001,18.0840001 21.4920001,18.6360001 20.9040001,19.3200001 L20.9040001,18.7920001 C20.9040001,18.4200001 20.7840001,18.0840001 20.4480001,18.0840001 C20.0520001,18.0840001 19.6920001,18.6960001 19.4160001,19.3080001 L19.5960001,19.3080001 C19.7640001,19.0200001 19.9320001,18.8640001 20.0760001,18.8640001 M19.2960001,18.9360001 C19.4280001,18.4800001 19.3560001,18.0720001 19.0080001,18.0720001 C18.5640001,18.0720001 18.4320001,18.3720001 17.9880001,19.3080001 L17.9880001,18.7800001 C17.9880001,18.4080001 17.8680001,18.0720001 17.5320001,18.0720001 C17.1360001,18.0720001 16.7760001,18.6840001 16.5000001,19.2960001 L16.6800001,19.2960001 C16.8720001,19.0200001 17.0520001,18.8520001 17.1960001,18.8520001 C17.3640001,18.8520001 17.4600001,19.1160001 17.1960001,19.6920001 L16.4280001,21.3960001 C16.2840001,21.7200001 16.4400001,21.9240001 16.7520001,21.9240001 C16.9440001,21.9240001 17.0280001,21.8760001 17.1120001,21.6720001 L17.8680001,19.6800001 C18.0840001,19.4160001 18.2760001,19.1880001 18.5160001,18.9360001 L19.2960001,18.9360001 L19.2960001,18.9360001 Z M15.1320001,18.6000001 C15.3960001,18.6000001 15.6240001,18.8040001 15.5040001,19.2720001 L14.2920001,19.5960001 C14.4840001,19.0200001 14.8440001,18.6000001 15.1320001,18.6000001 M15.8040001,20.5680001 L15.5640001,20.5680001 C15.2640001,20.9280001 14.9280001,21.2160001 14.6040001,21.2160001 C14.2680001,21.2160001 14.1000001,21.0120001 14.1000001,20.5680001 C14.1000001,20.3880001 14.1240001,20.1960001 14.1600001,20.0280001 L16.1160001,19.3800001 C16.5000001,18.4680001 16.0440001,18.0720001 15.5040001,18.0720001 C14.5800001,18.0720001 13.5240001,19.6920001 13.5240001,20.9880001 C13.5240001,21.6000001 13.8120001,21.9360001 14.2680001,21.9360001 C14.7960001,21.9240001 15.3480001,21.4080001 15.8040001,20.5680001 M11.316,18.6240001 L11.964,18.6240001 L10.932,21.4560001 C10.836,21.6960001 10.968,21.9360001 11.22,21.9360001 C11.952,21.9360001 12.8280001,21.3120001 13.1640001,20.4240001 L12.9840001,20.4240001 C12.7200001,20.7960001 12.144,21.2040001 11.712,21.2760001 L12.6600001,18.6240001 L13.6320001,18.6240001 L13.7520001,18.2160001 L12.8040001,18.2160001 L13.1640001,17.1960001 L12.7920001,17.1960001 L12.12,18.2160001 L11.316,18.3240001 L11.316,18.6240001 L11.316,18.6240001 Z M7.88400003,20.8200001 C7.88400003,19.9440001 8.85600004,18.7680001 9.39600004,18.7680001 C9.51600004,18.7680001 9.63600004,18.7800001 9.73200004,18.8160001 L9.16800004,20.3280001 C8.84400004,20.7240001 8.34000003,21.2040001 8.10000003,21.2040001 C7.96800003,21.2040001 7.88400003,21.0840001 7.88400003,20.8200001 M10.86,17.9160001 L10.56,17.8920001 L10.224,18.2280001 L10.164,18.2280001 C8.73600003,18.2280001 7.21200003,20.0040001 7.21200003,21.3960001 C7.21200003,21.7200001 7.39200003,21.9360001 7.74000003,21.9360001 C8.16000003,21.9360001 8.56800003,21.3360001 9.02400004,20.7000001 L9.00000004,20.9280001 C8.94000004,21.5760001 9.14400004,21.9360001 9.48000004,21.9360001 C9.87600004,21.9360001 10.236,21.3240001 10.512,20.7120001 L10.332,20.7120001 C10.14,20.9880001 9.96000004,21.1560001 9.81600004,21.1560001 C9.67200004,21.1560001 9.56400004,20.8920001 9.81600004,20.3160001 L10.86,17.9160001 Z M7.81200003,18.9360001 C7.94400003,18.4800001 7.87200003,18.0720001 7.52400003,18.0720001 C7.08000003,18.0720001 6.94800003,18.3720001 6.50400003,19.3080001 L6.50400003,18.7800001 C6.50400003,18.4080001 6.38400003,18.0720001 6.04800002,18.0720001 C5.65200002,18.0720001 5.29200002,18.6840001 5.01600002,19.2960001 L5.19600002,19.2960001 C5.38800002,19.0200001 5.56800002,18.8520001 5.70000002,18.8520001 C5.86800002,18.8520001 5.96400002,19.1160001 5.70000002,19.6920001 L4.93200002,21.4080001 C4.78800002,21.7320001 4.94400002,21.9360001 5.25600002,21.9360001 C5.44800002,21.9360001 5.53200002,21.8880001 5.61600002,21.6840001 L6.37200003,19.6920001 C6.58800003,19.4280001 6.78000003,19.2000001 7.02000003,18.9480001 L7.81200003,18.9480001 L7.81200003,18.9360001 Z M2.79600001,21.7920001 L2.86800001,21.5760001 C1.92000001,21.3960001 1.80000001,21.3960001 2.18400001,20.3760001 L2.53200001,19.4160001 L3.28800001,19.4160001 C3.75600002,19.4160001 3.75600002,19.6200001 3.69600001,20.1360001 L3.96000002,20.1360001 L4.58400002,18.4320001 L4.32000002,18.4320001 C4.09200002,18.8400001 3.90000002,19.1520001 3.39600001,19.1520001 L2.64000001,19.1520001 L3.15600001,17.7480001 C3.33600001,17.2440001 3.42000001,17.1480001 4.06800002,17.1480001 L4.23600002,17.1480001 C4.89600002,17.1480001 4.96800002,17.3280001 4.96800002,18.0240001 L5.23200002,18.0240001 L5.44800002,16.8600001 L1.81200001,16.8600001 L1.74000001,17.0760001 C2.49600001,17.2320001 2.56800001,17.3040001 2.22000001,18.2760001 L1.44000001,20.3640001 C1.08,21.3360001 0.936000004,21.4080001 0.0720000003,21.5640001 L0,21.7920001 L2.79600001,21.7920001 Z" id="Shape"></path>
                    <path d="M20.8800001,10.368 C21.1440001,10.368 21.3720001,10.572 21.2520001,11.028 L20.0400001,11.352 C20.2440001,10.788 20.6040001,10.368 20.8800001,10.368 M21.5520001,12.324 L21.3120001,12.324 C21.0120001,12.6840001 20.6760001,12.9720001 20.3520001,12.9720001 C20.0160001,12.9720001 19.8480001,12.7680001 19.8480001,12.324 C19.8480001,12.144 19.8720001,11.952 19.9080001,11.784 L21.8760001,11.136 C22.2600001,10.224 21.7920001,9.82800004 21.2640001,9.82800004 C20.3400001,9.82800004 19.2840001,11.448 19.2840001,12.7440001 C19.2840001,13.3560001 19.5720001,13.6920001 20.0280001,13.6920001 C20.5560001,13.6920001 21.1080001,13.1760001 21.5520001,12.324 M21.2400001,9.40800004 L22.3560001,8.38800003 L22.3560001,8.24400003 L21.6120001,8.24400003 L20.9520001,9.40800004 L21.2400001,9.40800004 Z M17.0760001,10.392 L17.7240001,10.392 L16.6920001,13.2240001 C16.5960001,13.464 16.7280001,13.7040001 16.9800001,13.7040001 C17.7120001,13.7040001 18.5880001,13.0800001 18.9240001,12.192 L18.7440001,12.192 C18.4800001,12.5640001 17.9040001,12.9720001 17.4720001,13.0440001 L18.4200001,10.392 L19.3920001,10.392 L19.5120001,9.98400004 L18.5640001,9.98400004 L18.9240001,8.96400004 L18.5520001,8.96400004 L17.8800001,9.98400004 L17.0760001,10.092 L17.0760001,10.392 L17.0760001,10.392 Z M16.4040001,10.248 C16.4760001,9.98400004 16.3080001,9.84000004 16.1640001,9.84000004 C15.6000001,9.84000004 14.9280001,10.356 14.6520001,11.064 L14.8320001,11.064 C15.0120001,10.8 15.3240001,10.512 15.6240001,10.464 L14.5440001,13.2840001 C14.4480001,13.5480001 14.6400001,13.6920001 14.7720001,13.6920001 C15.3120001,13.6920001 15.9360001,13.1760001 16.2120001,12.468 L16.0320001,12.468 C15.8520001,12.7320001 15.5400001,13.0200001 15.2400001,13.0680001 L16.4040001,10.248 Z M16.5120001,9.13200004 C16.7520001,9.13200004 16.9560001,8.92800004 16.9560001,8.68800003 C16.9560001,8.44800003 16.7520001,8.24400003 16.5120001,8.24400003 C16.2600001,8.24400003 16.0680001,8.44800003 16.0680001,8.68800003 C16.0680001,8.92800004 16.2720001,9.13200004 16.5120001,9.13200004 M13.0440001,13.0680001 L14.8320001,8.31600003 L14.7720001,8.24400003 L13.5360001,8.38800003 L13.5360001,8.53200003 L13.7760001,8.71200003 C13.9920001,8.88000004 13.9200001,9.03600004 13.7280001,9.56400004 L12.36,13.2120001 C12.252,13.4280001 12.396,13.6920001 12.6480001,13.6920001 C13.2120001,13.6920001 13.8120001,13.1760001 14.0880001,12.468 L13.9080001,12.468 C13.7160001,12.7320001 13.3320001,13.0200001 13.0440001,13.0680001 M9.38400004,12.5880001 C9.38400004,11.712 10.356,10.536 10.896,10.536 C11.016,10.536 11.124,10.548 11.232,10.584 L10.668,12.096 C10.344,12.492 9.84000004,12.9720001 9.61200004,12.9720001 C9.46800004,12.9720001 9.38400004,12.8520001 9.38400004,12.5880001 M12.36,9.68400004 L12.06,9.66000004 L11.724,9.99600004 L11.664,9.99600004 C10.236,9.99600004 8.71200003,11.772 8.71200003,13.1640001 C8.71200003,13.4880001 8.89200004,13.7040001 9.24000004,13.7040001 C9.66000004,13.7040001 10.068,13.1040001 10.524,12.468 L10.5,12.6960001 C10.44,13.3440001 10.644,13.7040001 10.98,13.7040001 C11.376,13.7040001 11.736,13.0920001 12.012,12.48 L11.832,12.48 C11.64,12.7560001 11.46,12.9240001 11.316,12.9240001 C11.172,12.9240001 11.064,12.66 11.316,12.084 L12.36,9.68400004 Z M5.43600002,14.3880001 C5.43600002,14.0160001 5.79600002,13.7760001 6.31200003,13.5720001 C6.48000003,13.6560001 6.73200003,13.7520001 7.08000003,13.8600001 C7.62000003,14.0400001 7.82400003,14.1120001 7.82400003,14.2680001 C7.82400003,14.6160001 7.33200003,14.8800001 6.43200003,14.8800001 C5.76000002,14.8800001 5.43600002,14.7360001 5.43600002,14.3880001 M6.91200003,12.096 C6.67200003,12.096 6.58800003,11.892 6.58800003,11.676 C6.58800003,10.98 6.92400003,10.116 7.46400003,10.116 C7.70400003,10.116 7.78800003,10.32 7.78800003,10.536 C7.77600003,11.244 7.44000003,12.096 6.91200003,12.096 M8.43600003,14.0400001 C8.43600003,13.5840001 8.02800003,13.4280001 7.36800003,13.2240001 C6.80400003,13.0560001 6.55200003,13.0080001 6.55200003,12.8160001 C6.55200003,12.6720001 6.67200003,12.492 6.91200003,12.36 C7.84800003,12.312 8.43600003,11.472 8.43600003,10.74 C8.43600003,10.608 8.41200003,10.488 8.37600003,10.38 L9.01200004,10.38 L9.13200004,9.97200004 L8.05200003,9.97200004 C7.90800003,9.87600004 7.72800003,9.82800004 7.52400003,9.82800004 C6.54000003,9.82800004 5.91600002,10.692 5.91600002,11.448 C5.91600002,11.94 6.20400002,12.276 6.64800003,12.336 C6.19200002,12.5520001 5.92800002,12.7800001 5.92800002,13.0680001 C5.92800002,13.2360001 5.98800002,13.3560001 6.13200002,13.4520001 C5.07600002,13.7640001 4.64400002,14.1480001 4.64400002,14.6160001 C4.64400002,15.1080001 5.29200002,15.3120001 6.04800002,15.3120001 C7.35600003,15.3240001 8.43600003,14.6280001 8.43600003,14.0400001 M3.56400001,11.172 C4.03200002,11.172 4.04400002,11.376 3.97200002,11.892 L4.23600002,11.892 L4.86000002,10.188 L4.59600002,10.188 C4.36800002,10.596 4.17600002,10.908 3.67200001,10.908 L2.64000001,10.908 L3.14400001,9.50400004 C3.32400001,9.00000004 3.40800001,8.90400004 4.05600002,8.90400004 L4.51200002,8.90400004 C5.17200002,8.90400004 5.24400002,9.08400004 5.24400002,9.78000004 L5.50800002,9.78000004 L5.72400002,8.61600003 L1.81200001,8.61600003 L1.74000001,8.83200004 C2.49600001,8.98800004 2.56800001,9.06000004 2.22000001,10.032 L1.44000001,12.132 C1.08,13.1040001 0.936000004,13.1760001 0.0600000002,13.3320001 L0,13.5600001 L4.34400002,13.5600001 L5.12400002,12.324 L4.82400002,12.324 C4.32000002,12.8160001 3.81600002,13.2720001 2.83200001,13.2720001 C1.68000001,13.2720001 1.77600001,13.2120001 2.16000001,12.144 L2.52000001,11.184 L3.56400001,11.184 L3.56400001,11.172 Z M4.12800002,8.24400003 L5.24400002,7.44000003 L5.24400002,7.29600003 L4.50000002,7.29600003 L3.84000002,8.25600003 L4.12800002,8.25600003 L4.12800002,8.24400003 Z" id="Shape"></path>
                    <path d="M20.7480001,2.13600001 C21.0120001,2.13600001 21.2400001,2.34000001 21.1200001,2.79600001 L19.9080001,3.12000001 C20.1000001,2.55600001 20.4600001,2.13600001 20.7480001,2.13600001 M21.4200001,4.09200002 L21.1800001,4.09200002 C20.8800001,4.45200002 20.5440001,4.74000002 20.2200001,4.74000002 C19.8840001,4.74000002 19.7160001,4.53600002 19.7160001,4.09200002 C19.7160001,3.91200002 19.7400001,3.72000001 19.7760001,3.55200001 L21.7320001,2.90400001 C22.1160001,1.99200001 21.6480001,1.59600001 21.1200001,1.59600001 C20.1960001,1.59600001 19.1400001,3.21600001 19.1400001,4.51200002 C19.1400001,5.12400002 19.4280001,5.44800002 19.8840001,5.44800002 C20.4120001,5.46000002 20.9640001,4.94400002 21.4200001,4.09200002 M21.1080001,1.176 L22.2240001,0.156000001 L22.2240001,0.012 L21.4800001,0.012 L20.8200001,1.176 L21.1080001,1.176 Z M16.9320001,2.16000001 L17.5800001,2.16000001 L16.5480001,4.99200002 C16.4520001,5.232 16.5840001,5.47200002 16.8360001,5.47200002 C17.5680001,5.47200002 18.4440001,4.84800002 18.7800001,3.96000002 L18.6000001,3.96000002 C18.3360001,4.33200002 17.7600001,4.74000002 17.3280001,4.81200002 L18.2760001,2.16000001 L19.2480001,2.16000001 L19.3680001,1.75200001 L18.4200001,1.75200001 L18.7800001,0.732000003 L18.4080001,0.732000003 L17.7360001,1.75200001 L16.9320001,1.86000001 L16.9320001,2.16000001 L16.9320001,2.16000001 Z M16.5960001,2.47200001 C16.7280001,2.01600001 16.6560001,1.60800001 16.3080001,1.60800001 C15.8640001,1.60800001 15.7320001,1.90800001 15.2880001,2.84400001 L15.2880001,2.31600001 C15.2880001,1.94400001 15.1680001,1.60800001 14.8320001,1.60800001 C14.4360001,1.60800001 14.0760001,2.22000001 13.8000001,2.83200001 L13.9800001,2.83200001 C14.1720001,2.55600001 14.3520001,2.38800001 14.4840001,2.38800001 C14.6520001,2.38800001 14.7480001,2.65200001 14.4840001,3.22800001 L13.7160001,4.93200002 C13.5720001,5.25600002 13.7280001,5.46000002 14.0400001,5.46000002 C14.2320001,5.46000002 14.3160001,5.41200002 14.4000001,5.20800002 L15.1560001,3.21600001 C15.3720001,2.95200001 15.5640001,2.72400001 15.8040001,2.47200001 L16.5960001,2.47200001 Z M12.42,2.13600001 C12.6840001,2.13600001 12.9120001,2.34000001 12.7920001,2.79600001 L11.58,3.12000001 C11.784,2.55600001 12.132,2.13600001 12.42,2.13600001 M13.0920001,4.09200002 L12.8520001,4.09200002 C12.5520001,4.45200002 12.216,4.74000002 11.892,4.74000002 C11.556,4.74000002 11.388,4.53600002 11.388,4.09200002 C11.388,3.91200002 11.412,3.72000001 11.448,3.55200001 L13.4040001,2.90400001 C13.7880001,1.99200001 13.3320001,1.59600001 12.7920001,1.59600001 C11.868,1.59600001 10.812,3.21600001 10.812,4.51200002 C10.812,5.12400002 11.1,5.44800002 11.556,5.44800002 C12.084,5.46000002 12.6360001,4.94400002 13.0920001,4.09200002 M8.52000003,4.88400002 C8.32800003,4.88400002 8.05200003,4.70400002 8.05200003,4.54800002 C8.05200003,4.50000002 8.13600003,4.28400002 8.24400003,4.00800002 L8.55600003,3.16800001 C8.89200004,2.76000001 9.42000004,2.32800001 9.70800004,2.32800001 C9.88800004,2.32800001 10.02,2.43600001 10.02,2.70000001 C10.032,3.48000001 9.30000004,4.88400002 8.52000003,4.88400002 M10.704,2.40000001 C10.704,1.82400001 10.56,1.60800001 10.152,1.60800001 C9.64800004,1.60800001 9.18000004,2.14800001 8.71200003,2.79600001 L9.72000004,0.0960000004 L9.66000004,0.012 L8.42400003,0.156000001 L8.42400003,0.300000001 L8.66400003,0.480000002 C8.88000004,0.648000003 8.80800004,0.816000003 8.61600003,1.33200001 L7.52400003,4.18800002 C7.42800003,4.42800002 7.32000003,4.71600002 7.32000003,4.78800002 C7.32000003,5.12400002 7.77600003,5.44800002 8.19600003,5.44800002 C9.13200004,5.46000002 10.704,3.73200001 10.704,2.40000001 M7.03200003,2.01600001 C7.10400003,1.75200001 6.93600003,1.60800001 6.79200003,1.60800001 C6.22800002,1.60800001 5.55600002,2.12400001 5.28000002,2.83200001 L5.46000002,2.83200001 C5.64000002,2.56800001 5.95200002,2.28000001 6.25200003,2.23200001 L5.17200002,5.05200002 C5.07600002,5.31600002 5.26800002,5.46000002 5.41200002,5.46000002 C5.95200002,5.46000002 6.57600003,4.94400002 6.85200003,4.23600002 L6.67200003,4.23600002 C6.49200003,4.50000002 6.18000002,4.78800002 5.88000002,4.83600002 L7.03200003,2.01600001 Z M7.15200003,0.888000004 C7.39200003,0.888000004 7.59600003,0.684000003 7.59600003,0.444000002 C7.59600003,0.204000001 7.39200003,-3.55271368e-15 7.15200003,-3.55271368e-15 C6.90000003,-3.55271368e-15 6.70800003,0.204000001 6.70800003,0.444000002 C6.70800003,0.696000003 6.90000003,0.888000004 7.15200003,0.888000004 M4.39200002,0.360000001 L1.81200001,0.360000001 L1.74000001,0.576000002 C2.49600001,0.732000003 2.56800001,0.804000003 2.22000001,1.77600001 L1.44000001,3.90000002 C1.08,4.87200002 0.936000004,4.94400002 0.0720000003,5.10000002 L-5.32907052e-15,5.31600002 L3.92400002,5.31600002 L4.77600002,3.80400002 L4.47600002,3.80400002 C3.98400002,4.34400002 3.43200001,5.02800002 2.55600001,5.02800002 C1.89600001,5.02800002 1.80000001,4.90800002 2.17200001,3.90000002 L2.94000001,1.78800001 C3.30000001,0.816000003 3.44400001,0.744000003 4.32000002,0.588000002 L4.39200002,0.360000001 Z" id="Shape"></path>
                </g>
                <g id="MARIANNE" transform="translate(12.000000, 12.000000)" fill-rule="nonzero">
                    <path d="M10.6929329,10.5194175 C10.6969329,10.5194175 10.7009329,10.5135351 10.7009329,10.5135351 C10.7329329,10.4900057 10.7649329,10.4605939 10.7929329,10.4252998 C10.7889329,10.4252998 10.7849329,10.4252998 10.7809329,10.4194175 C10.7529329,10.4488292 10.7209329,10.4841234 10.6929329,10.5194175" id="Path" fill="#1F356C"></path>
                    <path d="M15.1215724,9.03747573 L15.0515724,9.09747573 C15.0915724,9.08747573 15.1215724,9.07747573 15.1215724,9.03747573" id="Path" fill="#1F356C"></path>
                    <path d="M13.6897527,10.5514563 C13.8180212,10.423301 13.9462898,10.2873786 14.0745583,10.1475728 L14.0706714,10.1475728 C14.3116608,9.87572816 14.5448763,9.61553398 14.824735,9.37864078 C14.9102473,9.30097087 14.9918728,9.23495146 15.0696113,9.18058252 C15.0929329,9.15728155 15.0929329,9.11067961 15.1162544,9.09126214 C15.0035336,9.13398058 14.9374558,9.22718447 14.8208481,9.26990291 C14.7975265,9.26990291 14.7742049,9.24660194 14.7975265,9.22330097 C14.8791519,9.16504854 14.9607774,9.10291262 15.0385159,9.0407767 C15.034629,9.0407767 15.0268551,9.0407767 15.0229682,9.0407767 C14.9996466,9.0407767 14.9996466,9.01747573 14.9996466,8.99417476 C14.7042403,8.94757282 14.4787986,9.15339806 14.2766784,9.33203883 C14.2300353,9.35533981 14.1872792,9.30873786 14.1639576,9.30873786 C13.8257951,9.42135922 13.5770318,9.71650485 13.2388693,9.84854369 L13.2388693,9.80194175 C13.1028269,9.84854369 12.9706714,9.93009709 12.830742,9.96116505 C12.6286219,10.007767 12.4459364,9.98446602 12.2671378,9.98446602 C11.9911661,10.0116505 11.7190813,10.0737864 11.4469965,10.1320388 C11.4392226,10.1359223 11.4314488,10.1359223 11.4236749,10.1398058 C11.2759717,10.1786408 11.1399293,10.2330097 11.0038869,10.3106796 L10.9883392,10.3184466 C10.9766784,10.3339806 10.9650177,10.3456311 10.9572438,10.3572816 C10.9106007,10.4116505 10.8678445,10.4582524 10.8017668,10.4932039 C10.6618375,10.5631068 10.5491166,10.6873786 10.4286219,10.784466 C10.4208481,10.792233 10.4053004,10.7961165 10.3936396,10.7961165 C10.2731449,10.9126214 10.1526502,11.0291262 10.0282686,11.1417476 C10.0204947,11.1495146 9.98551237,11.1533981 9.95830389,11.1495146 C9.95830389,11.1495146 9.96219081,11.1495146 9.96219081,11.1456311 C9.96607774,11.1378641 9.96996466,11.1300971 9.97385159,11.1223301 C9.99328622,11.0912621 10.0127208,11.0601942 10.0321555,11.0291262 C10.055477,10.9941748 10.0749117,10.9592233 10.0982332,10.9242718 C10.1293286,10.8776699 10.160424,10.831068 10.1954064,10.7883495 C10.2031802,10.776699 10.2031802,10.7650485 10.1954064,10.7572816 C10.1876325,10.7495146 10.1759717,10.7456311 10.164311,10.7456311 C10.2770318,10.6368932 10.4091873,10.5436893 10.5452297,10.4621359 L10.5452297,10.4582524 C10.529682,10.4621359 10.5063604,10.4504854 10.5180212,10.4349515 C10.5335689,10.415534 10.5452297,10.392233 10.5568905,10.3728155 C10.5607774,10.3650485 10.5607774,10.361165 10.5646643,10.3533981 C10.5607774,10.3456311 10.5530035,10.3417476 10.5491166,10.3339806 C10.5141343,10.3572816 10.475265,10.3805825 10.4441696,10.407767 C10.3897527,10.4543689 10.3469965,10.5553398 10.265371,10.5553398 C10.2614841,10.5553398 10.2420495,10.5553398 10.2303887,10.5514563 C10.2187279,10.5514563 10.2109541,10.5475728 10.2070671,10.5436893 C10.2070671,10.5398058 10.2070671,10.5398058 10.2109541,10.5398058 C10.2109541,10.5398058 10.214841,10.5359223 10.214841,10.5320388 C10.214841,10.5320388 10.214841,10.5281553 10.2187279,10.5281553 C10.2226148,10.5203883 10.2265018,10.5165049 10.2303887,10.5087379 C10.2342756,10.5009709 10.2381625,10.4970874 10.2420495,10.4893204 C10.2459364,10.4854369 10.2459364,10.4776699 10.2498233,10.4737864 C10.2537102,10.4660194 10.2614841,10.4543689 10.265371,10.4427184 C10.269258,10.4349515 10.2731449,10.431068 10.2770318,10.423301 C10.2886926,10.407767 10.2964664,10.3883495 10.3081272,10.3728155 C10.3120141,10.3650485 10.3159011,10.3572816 10.3236749,10.3495146 C10.3314488,10.3339806 10.3392226,10.3223301 10.3469965,10.3067961 C10.3586572,10.2873786 10.3469965,10.2718447 10.3314488,10.2679612 C10.3742049,10.2135922 10.424735,10.1669903 10.4869258,10.1320388 L10.4791519,10.1320388 C10.5646643,10.0893204 10.6540636,10.0349515 10.739576,9.98834951 C10.7512367,9.97669903 10.7628975,9.96504854 10.7784452,9.95728155 C10.6501767,10 10.5335689,10.0582524 10.4208481,10.1359223 C10.4208481,10.1359223 10.3897527,10.1475728 10.3819788,10.1553398 C10.3819788,10.1553398 10.3586572,10.1631068 10.3275618,10.1359223 C10.3236749,10.1320388 10.3236749,10.1281553 10.3236749,10.1203883 C10.3469965,10.0737864 10.4130742,10.0543689 10.4597173,10.007767 C10.4830389,10.007767 10.5024735,10.007767 10.5024735,10.031068 C11.2254417,9.46796117 12.2204947,9.6038835 13.0561837,9.30873786 C13.1222615,9.26213592 13.1922261,9.21941748 13.2583039,9.17281553 C13.3710247,9.12621359 13.460424,9.01359223 13.5964664,8.94757282 C13.775265,8.81165049 13.9113074,8.65631068 13.9812721,8.42718447 C13.9812721,8.4038835 13.9579505,8.38058252 13.9579505,8.38058252 C13.6625442,8.69514563 13.3243816,8.94368932 12.9628975,9.12621359 C12.4886926,9.37475728 11.9678445,9.33203883 11.4742049,9.39805825 C11.4975265,9.35145631 11.5441696,9.35145631 11.5869258,9.35145631 C11.5869258,9.2815534 11.629682,9.26213592 11.6763251,9.21553398 L11.7424028,9.21553398 C11.7657244,9.21553398 11.7657244,9.16893204 11.7890459,9.16893204 C11.835689,9.16893204 11.9017668,9.14563107 11.8784452,9.14563107 C11.8084806,9.05631068 11.6763251,9.21165049 11.5636042,9.14563107 C11.6063604,9.09902913 11.5869258,9.03300971 11.629682,9.00970874 L11.7190813,9.00970874 C11.7190813,8.9631068 11.7657244,8.92038835 11.7657244,8.92038835 C12.1038869,8.7184466 12.4226148,8.5592233 12.7374558,8.38058252 C12.6713781,8.38058252 12.624735,8.45048544 12.5586572,8.4038835 C12.6053004,8.4038835 12.5586572,8.33786408 12.6053004,8.33786408 C12.8540636,8.27184466 13.0561837,8.13592233 13.304947,8.04271845 C13.2155477,8.04271845 13.145583,8.11262136 13.0561837,8.04271845 C13.1028269,8.01941748 13.1222615,7.97669903 13.1922261,7.97669903 L13.1922261,7.91067961 C13.1922261,7.88737864 13.2155477,7.88737864 13.2388693,7.88737864 C13.2155477,7.88737864 13.1922261,7.86407767 13.1922261,7.86407767 C13.2155477,7.81747573 13.2816254,7.8407767 13.3282686,7.79805825 C13.304947,7.79805825 13.2621908,7.79805825 13.2621908,7.77475728 C13.3282686,7.68543689 13.4409894,7.66213592 13.5537102,7.63883495 C13.5303887,7.59223301 13.464311,7.63883495 13.464311,7.59223301 C13.464311,7.56893204 13.4876325,7.56893204 13.5109541,7.56893204 L13.464311,7.56893204 C13.4176678,7.54563107 13.4409894,7.49902913 13.4409894,7.47961165 C13.5770318,7.32038835 13.5770318,7.1184466 13.6431095,6.93980583 C13.619788,6.93980583 13.5964664,6.93980583 13.5964664,6.91650485 C13.3710247,7.16504854 13.0095406,7.25436893 12.6713781,7.34368932 L12.5586572,7.34368932 C12.4459364,7.39029126 12.2865724,7.39029126 12.1738516,7.32038835 C12.0844523,7.27378641 12.0378092,7.20776699 11.9484099,7.14174757 C11.7657244,7.02912621 11.5869258,6.93980583 11.3848057,6.86990291 C10.8212014,6.69126214 10.2342756,6.59805825 9.64734982,6.62135922 C9.89611307,6.48543689 10.1681979,6.47378641 10.4363958,6.3961165 C10.8212014,6.28349515 11.1826855,6.14757282 11.5869258,6.17087379 C11.5208481,6.14757282 11.4275618,6.17087379 11.3614841,6.17087379 C11.0466431,6.14757282 10.7279152,6.2368932 10.3897527,6.30679612 C10.164311,6.35339806 9.96219081,6.44271845 9.73286219,6.48543689 C9.59681979,6.53203883 9.53074205,6.66407767 9.37137809,6.64466019 L9.37137809,6.57475728 C9.59681979,6.30291262 9.86890459,6.03495146 10.2303887,6.01165049 C10.6385159,5.94563107 11.0194346,6.01165049 11.4275618,6.05825243 C11.7190813,6.0815534 11.9911661,6.14757282 12.2865724,6.21747573 C12.3992933,6.21747573 12.4226148,6.3961165 12.5120141,6.41941748 C12.6480565,6.46601942 12.7840989,6.41941748 12.9201413,6.50873786 C12.9201413,6.46213592 12.8968198,6.41941748 12.9201413,6.37281553 C13.0095406,6.28349515 13.1222615,6.3961165 13.2116608,6.34951456 C13.3943463,6.2368932 13.0522968,6.03495146 12.9628975,5.87572816 C12.9628975,5.85242718 12.9862191,5.82912621 12.9862191,5.82912621 C13.1650177,5.98834951 13.3010601,6.16699029 13.5265018,6.27961165 C13.6392226,6.32621359 13.9113074,6.39223301 13.8646643,6.25631068 C13.7519435,6.00776699 13.5265018,5.80582524 13.3438163,5.58058252 L13.3438163,5.49126214 C13.2971731,5.49126214 13.2971731,5.46796117 13.2777385,5.44466019 L13.2777385,5.35533981 C13.1883392,5.30873786 13.2077739,5.21941748 13.1650177,5.15339806 C13.095053,5.0407767 13.1416961,4.8815534 13.095053,4.74563107 C13.0484099,4.60970874 13.0289753,4.49708738 13.0056537,4.36116505 C12.935689,3.97669903 12.8462898,3.63883495 12.8035336,3.2776699 C12.7568905,2.85048544 13.0522968,2.50873786 13.254417,2.12815534 C13.4137809,1.85631068 13.5925795,1.58834951 13.8879859,1.40582524 C13.9540636,1.13398058 14.1367491,0.908737864 14.3155477,0.683495146 C14.4943463,0.462135922 14.7975265,0.330097087 15.0113074,0.233009709 C15.3261484,0.0932038835 15.609894,0.00388349515 15.6137809,0.00388349515 L0,0.00388349515 L0,11.961165 L11.0777385,11.961165 C11.5091873,11.6504854 11.9367491,11.5067961 12.5392226,11.207767 C12.8190813,11.0679612 13.4681979,10.768932 13.6897527,10.5514563 M10.214841,8.93592233 C10.1681979,8.93592233 10.0787986,8.9592233 10.1021201,8.91262136 C10.1254417,8.8 10.2809187,8.8 10.3742049,8.75339806 C10.4208481,8.73009709 10.4869258,8.68737864 10.5335689,8.70679612 C10.580212,8.77281553 10.6462898,8.75339806 10.6929329,8.7961165 C10.5530035,8.93592233 10.3742049,8.86601942 10.214841,8.93592233 M6.75936396,8.43883495 C6.75936396,8.43883495 6.7360424,8.41553398 6.7360424,8.39223301 C7.03144876,8.00776699 7.25689046,7.64660194 7.4590106,7.24271845 C7.75441696,7.08349515 7.99540636,6.85436893 8.22862191,6.60970874 C8.61342756,6.20194175 9.01766784,5.8407767 9.49187279,5.61553398 C9.67067138,5.54563107 9.9,5.56893204 10.0787986,5.63883495 C10.0127208,5.72815534 9.9,5.70485437 9.80671378,5.77475728 C9.78339223,5.77475728 9.76007067,5.77475728 9.73674912,5.75145631 C9.76007067,5.72815534 9.76007067,5.70485437 9.76007067,5.6815534 C9.53462898,5.93009709 9.21978799,6.04271845 9.03710247,6.33786408 C8.90106007,6.5631068 8.81166078,6.85825243 8.52014134,6.92427184 C8.43074205,6.94757282 8.5434629,6.85825243 8.49681979,6.8776699 C7.79717314,7.30873786 7.30353357,7.82912621 6.75936396,8.43883495 M8.63286219,6.94757282 C8.60954064,6.99417476 8.58621908,6.99805825 8.56678445,7.0368932 C8.5434629,7.08349515 8.52014134,7.10291262 8.47738516,7.12621359 C8.4540636,7.12621359 8.43074205,7.12621359 8.43074205,7.10291262 C8.4540636,7.01359223 8.52014134,6.92427184 8.60954064,6.90097087 C8.63286219,6.90485437 8.63286219,6.92815534 8.63286219,6.94757282 M9.68233216,10.3300971 C9.67067138,10.3533981 9.64734982,10.376699 9.62791519,10.3961165 C9.65512367,10.4 9.6745583,10.415534 9.6590106,10.431068 C9.60848057,10.4776699 9.55795053,10.5281553 9.48798587,10.5514563 C9.48409894,10.5514563 9.46855124,10.5553398 9.45300353,10.5553398 C9.42579505,10.5825243 9.39858657,10.6097087 9.36749117,10.6330097 C9.34028269,10.6563107 9.21590106,10.6407767 9.25477032,10.6058252 C9.3130742,10.5553398 9.36749117,10.5009709 9.42190813,10.4466019 C9.45300353,10.415534 9.48798587,10.3883495 9.51519435,10.3572816 C9.53074205,10.3378641 9.54240283,10.3223301 9.56183746,10.3067961 C9.58127208,10.2951456 9.70176678,10.2834951 9.68233216,10.3300971 M9.27809187,10.1436893 C9.27420495,10.1436893 9.27420495,10.1436893 9.27420495,10.1475728 C9.18869258,10.2058252 9.10706714,10.2679612 9.01766784,10.3184466 C8.9204947,10.3728155 8.81943463,10.415534 8.71837456,10.4660194 C8.71837456,10.4660194 8.71837456,10.4621359 8.71448763,10.4621359 C8.70671378,10.4504854 8.69116608,10.4466019 8.67561837,10.4543689 C8.59010601,10.5009709 8.51625442,10.5631068 8.45017668,10.6291262 C8.4385159,10.6368932 8.42685512,10.6485437 8.41908127,10.6601942 L8.41908127,10.6601942 C8.41908127,10.6601942 8.41908127,10.6601942 8.41908127,10.6601942 L8.38798587,10.6912621 C8.38798587,10.6912621 8.38409894,10.6951456 8.38409894,10.6951456 C8.38409894,10.6951456 8.38409894,10.6951456 8.38409894,10.6990291 C8.36855124,10.7145631 8.35300353,10.7300971 8.3335689,10.7533981 C8.32190813,10.7650485 8.3180212,10.776699 8.3024735,10.784466 C8.2869258,10.792233 8.24805654,10.792233 8.25194346,10.768932 C8.25194346,10.768932 8.25194346,10.7650485 8.25194346,10.7650485 C8.24028269,10.7728155 8.22473498,10.7805825 8.2130742,10.784466 C8.20141343,10.792233 8.18975265,10.7961165 8.17809187,10.8038835 C8.17420495,10.8 8.1664311,10.8 8.16254417,10.8 C8.15865724,10.8 8.15088339,10.8 8.14699647,10.8038835 C8.11978799,10.8271845 8.09257951,10.8466019 8.06537102,10.8737864 C8.01872792,10.9165049 7.97597173,10.9631068 7.93321555,11.0135922 C7.93321555,11.0135922 7.93321555,11.0174757 7.92932862,11.0174757 C7.92932862,11.0213592 7.9254417,11.0213592 7.9254417,11.0252427 C7.92155477,11.0291262 7.92155477,11.0291262 7.91766784,11.0330097 C7.91378092,11.0368932 7.91378092,11.0407767 7.90989399,11.0407767 C7.90989399,11.0407767 7.90989399,11.0407767 7.90600707,11.0446602 C7.90212014,11.0524272 7.89823322,11.0601942 7.89045936,11.0679612 C7.89045936,11.0679612 7.89045936,11.0679612 7.89045936,11.0679612 C7.88657244,11.0718447 7.87879859,11.0757282 7.87102473,11.0757282 C7.86713781,11.0718447 7.86325088,11.0679612 7.86325088,11.0640777 C7.85936396,11.0601942 7.85936396,11.0563107 7.85547703,11.0524272 C7.84770318,11.0407767 7.84381625,11.0291262 7.8360424,11.0174757 C7.8360424,11.0174757 7.8360424,11.0174757 7.8360424,11.0135922 C7.8360424,11.0097087 7.83215548,11.0058252 7.83215548,11.0019417 C7.85547703,10.9747573 7.87879859,10.9475728 7.90212014,10.9203883 C7.90212014,10.9203883 7.90600707,10.9165049 7.90600707,10.9165049 C7.91378092,10.9087379 7.92155477,10.8970874 7.92932862,10.8893204 C7.9409894,10.8737864 7.9565371,10.8582524 7.96819788,10.8427184 C7.97208481,10.8349515 7.97597173,10.831068 7.97985866,10.823301 C8.00318021,10.792233 8.02650177,10.761165 8.04982332,10.7262136 C8.04982332,10.7262136 8.04982332,10.7262136 8.04982332,10.7223301 C8.05371025,10.7184466 8.05759717,10.7145631 8.05759717,10.7067961 C8.06925795,10.6912621 8.08091873,10.6757282 8.08869258,10.6601942 C8.09646643,10.6446602 8.10424028,10.6291262 8.11201413,10.6135922 L8.11201413,10.6097087 L8.11590106,10.6058252 C8.11590106,10.6019417 8.11978799,10.6019417 8.11978799,10.5980583 C8.12756184,10.5786408 8.13533569,10.5631068 8.14310954,10.5436893 C8.14310954,10.5436893 8.14310954,10.5398058 8.14310954,10.5398058 L8.14699647,10.5242718 C8.15088339,10.5165049 8.15088339,10.5087379 8.15477032,10.5009709 C8.15477032,10.5009709 8.15477032,10.4970874 8.15477032,10.4970874 C8.15865724,10.4854369 8.15865724,10.4737864 8.16254417,10.4621359 C8.16254417,10.4582524 8.16254417,10.4504854 8.15865724,10.4466019 C8.1819788,10.4038835 8.2130742,10.3650485 8.24805654,10.3262136 C8.24416961,10.3262136 8.24028269,10.3300971 8.23639576,10.3300971 C8.20530035,10.3495146 8.1819788,10.3805825 8.15088339,10.4038835 C8.12756184,10.423301 8.08091873,10.392233 8.11201413,10.368932 C8.13144876,10.3533981 8.14699647,10.3378641 8.16254417,10.3223301 C8.16254417,10.3223301 8.16254417,10.3184466 8.1664311,10.3184466 C8.20530035,10.2834951 8.24028269,10.2368932 8.28303887,10.2058252 C8.31024735,10.1864078 8.32968198,10.1708738 8.35300353,10.1514563 C8.35689046,10.1475728 8.36077739,10.1436893 8.36466431,10.1436893 C8.38021201,10.1242718 8.39575972,10.1048544 8.41519435,10.0854369 C8.41519435,10.0854369 8.41908127,10.0854369 8.41908127,10.0815534 C8.63674912,9.87184466 8.99823322,9.88349515 9.28586572,9.75145631 C9.39858657,9.70485437 9.53462898,9.77475728 9.64734982,9.75145631 C9.71342756,9.75145631 9.78339223,9.75145631 9.84946996,9.79805825 C9.65123675,9.90291262 9.46466431,10.0271845 9.27809187,10.1436893 M9.74063604,8.57475728 C9.71731449,8.55145631 9.81060071,8.57475728 9.83003534,8.52815534 L9.65123675,8.52815534 C9.62791519,8.52815534 9.62791519,8.50485437 9.62791519,8.4815534 C9.51519435,8.50485437 9.37915194,8.54757282 9.2664311,8.57087379 C9.10706714,8.61747573 8.97102473,8.73009709 8.79222615,8.77281553 C8.5434629,8.86213592 8.34134276,9.06796117 8.06925795,9.15728155 C8.0459364,9.15728155 8.0459364,9.13398058 8.0459364,9.11067961 C8.06925795,9.04466019 8.15865724,9.02135922 8.20530035,8.95145631 C8.20530035,8.92815534 8.20530035,8.90485437 8.1819788,8.90485437 C8.36077739,8.65631068 8.60954064,8.52038835 8.83886926,8.3184466 L8.83886926,8.24854369 C8.904947,8.1592233 9.01766784,8.11262136 9.06431095,8 C9.08763251,7.93398058 9.1770318,7.8407767 9.28975265,7.79805825 C9.2664311,7.77475728 9.22367491,7.77475728 9.22367491,7.73203883 C9.13427562,7.73203883 9.0409894,7.77864078 8.95159011,7.70873786 C8.99434629,7.66601942 9.0409894,7.64271845 9.09151943,7.62718447 C9.07208481,7.62330097 9.0565371,7.61553398 9.0409894,7.5961165 C9.01766784,7.54951456 9.08374558,7.49902913 9.15371025,7.48349515 C9.24310954,7.46019417 9.35583039,7.46019417 9.42579505,7.39417476 C9.2664311,7.37087379 9.08763251,7.4407767 8.92826855,7.34757282 C9.0409894,7.05631068 9.22367491,6.80776699 9.49187279,6.67184466 C9.51519435,6.67184466 9.56183746,6.67184466 9.56183746,6.69514563 C9.56183746,6.80776699 9.49187279,6.89708738 9.37915194,6.92038835 C9.56183746,6.96699029 9.74063604,6.96699029 9.91943463,7.05631068 C9.89611307,7.10291262 9.85335689,7.07961165 9.83003534,7.07961165 C9.94275618,7.14563107 10.0787986,7.10291262 10.1915194,7.19223301 C10.1215548,7.25825243 10.055477,7.19223301 9.98939929,7.19223301 C10.6890459,7.39417476 11.4353357,7.55339806 12.0222615,8.0038835 C11.524735,8.25242718 11.0038869,8.36504854 10.4636042,8.4776699 C10.3975265,8.4776699 10.3508834,8.4776699 10.2848057,8.45436893 C10.2848057,8.4776699 10.2848057,8.52038835 10.2614841,8.52038835 C10.1720848,8.52038835 10.1021201,8.52038835 10.0360424,8.56699029 C9.94275618,8.61747573 9.80671378,8.6407767 9.74063604,8.57475728" id="Shape" fill="#000091"></path>
                    <path d="M32.9689046,0.0194174757 L20.1109541,0.0194174757 C20.1109541,0.0194174757 20.1342756,0.0233009709 20.2314488,0.0737864078 C20.3363958,0.12815534 20.4724382,0.201941748 20.5540636,0.244660194 C20.7212014,0.330097087 20.8805654,0.438834951 20.9855124,0.605825243 C21.0321555,0.67184466 21.0982332,0.80776699 21.055477,0.897087379 C21.0088339,1.00970874 20.9855124,1.19223301 20.8727915,1.23495146 C20.7367491,1.30485437 20.5579505,1.30485437 20.3985866,1.2815534 C20.3091873,1.2815534 20.219788,1.25825243 20.1265018,1.23495146 C20.4646643,1.37087379 20.7833922,1.53009709 21.0088339,1.84466019 C21.0321555,1.89126214 21.1215548,1.91067961 21.2109541,1.91067961 C21.2342756,1.91067961 21.2342756,1.95728155 21.2342756,1.97669903 C21.1876325,2.02330097 21.1448763,2.04660194 21.1681979,2.11262136 L21.2342756,2.11262136 C21.3469965,2.06601942 21.3236749,1.8407767 21.4830389,1.91067961 C21.5957597,1.97669903 21.6424028,2.13592233 21.5724382,2.24854369 C21.4830389,2.33786408 21.3936396,2.40776699 21.3003534,2.47378641 C21.2770318,2.52038835 21.2770318,2.58640777 21.3003534,2.63300971 C21.3664311,2.7223301 21.3897527,2.81165049 21.4130742,2.90485437 C21.4830389,3.06407767 21.5024735,3.24271845 21.5724382,3.40194175 C21.6618375,3.73980583 21.7512367,4.0776699 21.7318021,4.41941748 C21.7318021,4.59805825 21.6424028,4.75728155 21.7084806,4.93980583 C21.7551237,5.1184466 21.8678445,5.25436893 21.9572438,5.41359223 C22.0466431,5.54951456 22.1360424,5.63883495 22.2060071,5.77475728 C22.3420495,6 22.5908127,6.22524272 22.4780919,6.49708738 C22.4120141,6.65631068 22.1632509,6.63300971 22.0038869,6.7223301 C21.8678445,6.83495146 21.9805654,7.01747573 22.05053,7.13009709 C22.1632509,7.33203883 21.9144876,7.46796117 21.7551237,7.53786408 C21.8017668,7.60776699 21.8911661,7.58446602 21.9144876,7.62718447 C21.9378092,7.73980583 22.05053,7.80582524 21.9805654,7.9223301 C21.8911661,8.05825243 21.6190813,8.12427184 21.7551237,8.33009709 C21.844523,8.48932039 21.7862191,8.66407767 21.7318021,8.82718447 C21.6657244,9.02912621 21.4830389,9.1184466 21.3236749,9.16504854 C21.1876325,9.21165049 21.0282686,9.21165049 20.8961131,9.18834951 C20.84947,9.16504854 20.8067138,9.14174757 20.7600707,9.14174757 C20.375265,9.09514563 19.9904594,8.98640777 19.6095406,8.98640777 C19.4968198,9.00970874 19.3840989,9.02912621 19.2946996,9.07572816 C19.1936396,9.14951456 19.1003534,9.23106796 19.0226148,9.31650485 C19.0226148,9.31650485 19.0226148,9.31650485 19.0187279,9.32038835 C19.0031802,9.33980583 18.9837456,9.35533981 18.9681979,9.37475728 C18.960424,9.38640777 18.9487633,9.39805825 18.9409894,9.40970874 C18.9332155,9.41747573 18.9293286,9.42524272 18.9215548,9.43300971 C18.855477,9.51456311 18.7971731,9.6038835 18.7427562,9.69320388 C18.7388693,9.70097087 18.7349823,9.70485437 18.7310954,9.70873786 C18.7272085,9.72038835 18.7194346,9.72815534 18.7116608,9.73980583 C18.6378092,9.87572816 18.5833922,10.015534 18.540636,10.1553398 C18.385159,10.6718447 18.4551237,11.1145631 18.5639576,11.223301 C18.595053,11.2543689 19.3102473,11.4757282 19.8077739,11.6970874 C20.0409894,11.8019417 20.2042403,11.8796117 20.3402827,11.9650485 L32.9650177,11.9650485 L32.9650177,0.0194174757 L32.9689046,0.0194174757 Z" id="Path" fill="#E1000F"></path>
                    <path d="M20.8766784,4.37281553 C20.9660777,4.3961165 21.1021201,4.3961165 21.1021201,4.44271845 C21.055477,4.62135922 20.7872792,4.66796117 20.6512367,4.85048544 L20.5812721,4.85048544 C20.5151943,4.89708738 20.534629,5.00970874 20.4685512,5.00970874 C20.4024735,4.98640777 20.3325088,5.00970874 20.2664311,5.03300971 C20.3558304,5.1223301 20.4685512,5.19223301 20.6045936,5.16893204 C20.6279152,5.16893204 20.6706714,5.21553398 20.6706714,5.25825243 C20.6706714,5.25825243 20.6939929,5.25825243 20.7173145,5.23495146 C20.740636,5.23495146 20.7639576,5.23495146 20.7639576,5.25825243 L20.7639576,5.34757282 C20.6978799,5.4368932 20.5812721,5.39417476 20.4918728,5.41359223 C20.6745583,5.46019417 20.8533569,5.46019417 21.0127208,5.41359223 C21.1487633,5.36699029 21.0127208,5.14174757 21.1021201,5.02912621 C21.055477,5.02912621 21.1021201,4.9592233 21.055477,4.9592233 C21.1021201,4.91262136 21.1448763,4.84660194 21.1915194,4.82330097 C21.2381625,4.82330097 21.3042403,4.8 21.3275618,4.75339806 C21.3275618,4.70679612 21.2381625,4.68737864 21.2575972,4.6407767 C21.3936396,4.55145631 21.5063604,4.41553398 21.4597173,4.27961165 C21.4363958,4.20970874 21.2575972,4.20970874 21.1448763,4.16699029 C21.0321555,4.12427184 20.8961131,4.16699029 20.7600707,4.19029126 C20.6473498,4.19029126 20.534629,4.26019417 20.4219081,4.27961165 C20.2625442,4.32621359 20.1265018,4.41553398 19.9943463,4.50485437 C20.1537102,4.43883495 20.3091873,4.41553398 20.4918728,4.36893204 C20.6279152,4.37281553 20.740636,4.34174757 20.8766784,4.37281553" id="Path" fill="#808080"></path>
                </g>
                <text id="Intitulé-officiel" font-family="Marianne-Bold, Marianne" font-size="12" font-weight="bold" line-spacing="12" letter-spacing="0.0550005" fill="#212121">
                    <tspan x="12" y="40">MINISTÈRE</tspan>
                    <tspan x="12" y="52">DE L’INTERIEUR</tspan>
                </text>
            </g>
        </g>
    </g>
</svg>