<?xml version="1.0" encoding="UTF-8"?>
<svg width="49px" height="49px" viewBox="0 0 49 49" version="1.1" xmlns="http://www.w3.org/2000/svg" xmlns:xlink="http://www.w3.org/1999/xlink">
    <title>Group 23</title>
    <defs>
        <circle id="path-1" cx="24.5" cy="24.5" r="24.5"></circle>
    </defs>
    <g id="Pages" stroke="none" stroke-width="1" fill="none" fill-rule="evenodd">
        <g id="Page-Sujet-de-reglementation" transform="translate(-900.000000, -5085.000000)">
            <g id="Remonter-actualité-Copy" transform="translate(320.000000, 4973.000000)">
                <g id="Group-8-Copy-2" transform="translate(560.000000, 90.000000)">
                    <g id="Group-23" transform="translate(20.000000, 22.000000)">
                        <g id="jurica-koletic-7YVZYZeITc8-unsplash">
                            <mask id="mask-2" fill="white">
                                <use xlink:href="#path-1"></use>
                            </mask>
                            <circle stroke="#D5D5D5" cx="24.5" cy="24.5" r="24"></circle>
                        </g>
                        <path d="M29.0477969,23.2611429 C31.2614052,21.7686122 32.7213864,19.2213878 32.7213864,16.3265306 C32.7213864,11.7282041 29.0402606,8 24.5,8 C19.9597394,8 16.2786136,11.7282041 16.2786136,16.3265306 C16.2786136,19.2213878 17.7385948,21.7686122 19.9522031,23.2611429 C19.9522031,23.2611429 19.9528882,23.2618367 19.9535733,23.2618367 C19.9528882,23.2618367 19.9528882,23.2611429 19.9528882,23.2611429 C14.6542047,24.8785714 10.528439,29.2340408 9.2,34.7135918 L9.20068512,34.7142857 C9.41718162,34.9786531 9.64189952,35.2367755 9.87141322,35.4900408 C9.92690758,35.5517959 9.9851424,35.6107755 10.042007,35.6711429 C10.2187668,35.8612653 10.3975819,36.0486122 10.5811929,36.2317959 C10.6572407,36.3074286 10.7346588,36.3802857 10.8120768,36.4545306 C10.9819855,36.6182857 11.1539495,36.7799592 11.3293391,36.9374694 C11.4163487,37.0151837 11.5047286,37.0922041 11.5924234,37.1685306 C11.7643874,37.3177143 11.9384068,37.4641224 12.1158517,37.6070612 C12.2090274,37.6826939 12.3028882,37.7569388 12.3967491,37.8311837 C12.5762493,37.9713469 12.7584901,38.1073469 12.9427861,38.2405714 C13.0380172,38.3092653 13.131878,38.3793469 13.2284793,38.4466531 C13.4230521,38.5826531 13.6210505,38.713102 13.8204191,38.8421633 C13.9101693,38.8997551 13.9978641,38.9594286 14.0882993,39.0163265 C14.3184981,39.1599592 14.5528076,39.2973469 14.7891725,39.4319592 C14.851518,39.4673469 14.9124933,39.5055102 14.9755239,39.5402041 C15.2810854,39.7095102 15.5914428,39.8718776 15.9065959,40.0252245 C15.9141322,40.0286939 15.9223536,40.0321633 15.9298898,40.0356327 C16.2306556,40.1813469 16.5362171,40.3194286 16.8452042,40.4498776 C16.9411204,40.4908163 17.0390919,40.526898 17.1356932,40.5657551 C17.3590408,40.6559592 17.5823885,40.7447755 17.8098469,40.8266531 C17.9304272,40.8703673 18.0523778,40.9099184 18.1736432,40.951551 C18.3805481,41.0223265 18.5888232,41.0910204 18.7984686,41.1541633 C18.931381,41.1944082 19.0649785,41.2318776 19.1992611,41.2693469 C19.4020553,41.3262449 19.6062198,41.3803673 19.8124395,41.4310204 C19.951518,41.4650204 20.0912816,41.4976327 20.2317303,41.5288571 C20.43795,41.5746531 20.6448549,41.6162857 20.85313,41.6551429 C20.9942638,41.6815102 21.1347125,41.7085714 21.2772166,41.7314694 C21.4923428,41.7668571 21.7088393,41.7966939 21.926021,41.8251429 C22.0630441,41.8431837 22.1993821,41.8633061 22.3370903,41.8778776 C22.5768807,41.9042449 22.8187265,41.9229796 23.0605723,41.9403265 C23.177727,41.9486531 23.2935116,41.9611429 23.4106663,41.9673878 C23.7717222,41.9882041 24.1341483,42 24.5,42 C24.8658517,42 25.2282778,41.9882041 25.5893337,41.9687755 C25.7064884,41.9625306 25.8229581,41.9500408 25.9394277,41.9417143 C26.1819586,41.9243673 26.4238044,41.9056327 26.6629097,41.8792653 C26.8006179,41.864 26.9369559,41.8445714 27.073979,41.8265306 C27.2911607,41.7980816 27.5076572,41.7682449 27.7227834,41.7328571 C27.8646024,41.7092653 28.0057362,41.682898 28.14687,41.6565306 C28.3551451,41.6176735 28.5627351,41.5760408 28.7682697,41.5302449 C28.9087184,41.4990204 29.048482,41.4664082 29.1875605,41.4324082 C29.3930951,41.3817551 29.5972595,41.3276327 29.8007389,41.2707347 C29.9343364,41.2332653 30.068619,41.1957959 30.2015314,41.155551 C30.4118619,41.0917143 30.6194519,41.0230204 30.8263568,40.9529388 C30.9476222,40.9113061 31.0702579,40.8717551 31.1901531,40.8280408 C31.4169264,40.7454694 31.6409592,40.6573469 31.8643068,40.5671429 C31.9609081,40.5282857 32.0588796,40.4915102 32.1547958,40.4512653 C32.4624127,40.3208163 32.766604,40.1841224 33.0659995,40.0384082 C33.074906,40.0342449 33.0844976,40.0300816 33.0934041,40.0259184 C33.4085572,39.8725714 33.7189146,39.7102041 34.0244761,39.540898 C34.0875067,39.5062041 34.148482,39.4680408 34.2108275,39.4326531 C34.4471924,39.2980408 34.6815019,39.1606531 34.9117007,39.0170204 C35.0021359,38.9608163 35.0905159,38.9011429 35.1795809,38.8428571 C35.3789495,38.7137959 35.5769479,38.5826531 35.7715207,38.4473469 C35.8674369,38.3800408 35.9619828,38.3106531 36.0572139,38.2412653 C36.2415099,38.1073469 36.4237507,37.9713469 36.6032509,37.8318776 C36.6977969,37.7583265 36.7909726,37.6833878 36.8841483,37.6077551 C37.0609081,37.4648163 37.2356126,37.3184082 37.4075766,37.1692245 C37.4959565,37.092898 37.5843364,37.0158776 37.6706609,36.9381633 C37.8460505,36.7806531 38.0180145,36.6189796 38.1879232,36.4552245 C38.2646561,36.3809796 38.3427593,36.3074286 38.4188071,36.2324898 C38.6024181,36.0493061 38.7819183,35.8619592 38.957993,35.6718367 C39.0141725,35.6107755 39.0724073,35.5517959 39.1285868,35.4907347 C39.3581005,35.2374694 39.5828184,34.9793469 39.7993149,34.7149796 L39.8,34.7142857 C38.4722461,29.2340408 34.3464804,24.8785714 29.0477969,23.2611429 Z" id="Path" fill="#D5D5D5"></path>
                    </g>
                </g>
            </g>
        </g>
    </g>
</svg>