<?xml version="1.0" encoding="UTF-8"?>
<svg width="85px" height="54px" viewBox="0 0 85 54" version="1.1" xmlns="http://www.w3.org/2000/svg" xmlns:xlink="http://www.w3.org/1999/xlink">
    <title>Group 23</title>
    <g id="Site-externe" stroke="none" stroke-width="1" fill="none" fill-rule="evenodd">
        <g transform="translate(-1067.000000, -3508.000000)" id="Group-17">
            <g transform="translate(152.000000, 3201.500000)">
                <g id="Group-16" transform="translate(0.000000, 272.000000)">
                    <g id="Group-12-Copy-2" transform="translate(778.000000, 0.000000)">
                        <g id="Group-23" transform="translate(137.000000, 35.000000)">
                            <path d="M36.96,45.76 L36.96,49.28 L40.48,49.28 L40.48,45.76 L44,45.76 L44,49.28 C44,51.22128 42.42128,52.8 40.48,52.8 L40.48,52.8 L36.96,52.8 C35.01872,52.8 33.44,51.22128 33.44,49.28 L33.44,49.28 L33.44,45.76 L36.96,45.76 Z M72.16,19.36 C74.10128,19.36 75.68,20.93872 75.68,22.88 L75.68,22.88 L75.68,29.92 C75.68,31.86128 74.10128,33.44 72.16,33.44 L72.16,33.44 L68.64,33.44 C66.69872,33.44 65.12,31.86128 65.12,29.92 L65.12,29.92 L65.12,22.88 C65.12,20.93872 66.69872,19.36 68.64,19.36 L68.64,19.36 Z M15.84,19.36 C17.78128,19.36 19.36,20.93872 19.36,22.88 L19.36,22.88 L19.36,29.92 C19.36,31.86128 17.78128,33.44 15.84,33.44 L15.84,33.44 L12.32,33.44 C10.37872,33.44 8.8,31.86128 8.8,29.92 L8.8,29.92 L8.8,22.88 C8.8,20.93872 10.37872,19.36 12.32,19.36 L12.32,19.36 Z M47.52,19.36 C49.46128,19.36 51.04,20.93872 51.04,22.88 L51.04,22.88 L51.04,29.92 C51.04,31.86128 49.46128,33.44 47.52,33.44 L47.52,33.44 L44,33.44 C42.05872,33.44 40.48,31.86128 40.48,29.92 L40.48,29.92 L40.48,22.88 C40.48,20.93872 42.05872,19.36 44,19.36 L44,19.36 Z M72.16,22.88 L68.64,22.88 L68.64,29.92 L72.16176,29.92 L72.16,22.88 Z M15.84,22.88 L12.32,22.88 L12.32,29.92 L15.84,29.92 L15.84,22.88 Z M47.52,22.88 L44,22.88 L44,29.92 L47.52176,29.92 L47.52,22.88 Z M56.32,0 C58.26128,0 59.84,1.57872 59.84,3.52 L59.84,3.52 L59.84,12.32 L56.32,12.32 L56.32,3.52 L52.8,3.52 L52.8,7.04 L49.28,7.04 L49.28,3.52 C49.28,1.57872 50.85872,0 52.8,0 L52.8,0 Z M31.68,0 C33.62128,0 35.2,1.57872 35.2,3.52 L35.2,3.52 L35.2,7.04 L31.68,7.04 L31.68,3.52 L28.16,3.52 L28.16,12.32 L24.64,12.32 L24.64,3.52 C24.64,1.57872 26.21872,0 28.16,0 L28.16,0 Z" id="Combined-Shape" fill="#000091"></path>
                            <path d="M28.16,40.48 L28.16,52.8 L24.64,52.8 L24.64,40.48 L28.16,40.48 Z M19.36,38.72 L19.36,52.8 L15.84,52.8 L15.84,38.72 L19.36,38.72 Z M84.48,19.36 L84.48,33.44 L80.96,33.44 L80.96,19.36 L84.48,19.36 Z M3.52,19.36 L3.52,33.44 L4.61852778e-14,33.44 L4.61852778e-14,19.36 L3.52,19.36 Z M36.96,19.36 L36.96,33.44 L33.44,33.44 L33.44,19.36 L36.96,19.36 Z M19.36,-9.9475983e-14 L19.36,14.08 L15.84,14.08 L15.84,-9.9475983e-14 L19.36,-9.9475983e-14 Z M68.64,-9.9475983e-14 L68.64,14.08 L65.12,14.08 L65.12,-9.9475983e-14 L68.64,-9.9475983e-14 Z M44,-3.992362e-13 L44,7.04 L40.48,7.04 L40.48,-3.992362e-13 L44,-3.992362e-13 Z" id="Combined-Shape" fill="#E1000F"></path>
                            <path d="M28.16,26.4 C28.16,18.63664 34.47664,12.32 42.24,12.32 C50.00336,12.32 56.32,18.63664 56.32,26.4 C56.32,34.16336 50.00336,40.48 42.24,40.48 C34.47664,40.48 28.16,34.16336 28.16,26.4 M59.84,26.4 C59.84,16.69536 51.94464,8.8 42.24,8.8 C32.53536,8.8 24.64,16.69536 24.64,26.4 C24.64,36.10464 32.53536,44 42.24,44 C46.45872,44 50.336,42.504 53.37024,40.01888 L65.63568,52.28432 L68.12432,49.79568 L55.85888,37.53024 C58.344,34.496 59.84,30.61872 59.84,26.4" id="Fill-20" fill="#000091"></path>
                        </g>
                    </g>
                </g>
            </g>
        </g>
    </g>
</svg>